<svg width="30" height="30" viewBox="0 0 30 30" fill="none" xmlns="http://www.w3.org/2000/svg">
<path d="M0 9.96C0 1.75794 1.75794 0 9.96 0H20.04C28.2421 0 30 1.75794 30 9.96V20.04C30 28.2421 28.2421 30 20.04 30H9.96C1.75794 30 0 28.2421 0 20.04V9.96Z" fill="#262525"/>
<path d="M16.1072 19.8177V12.5246H17.9725V13.5905C18.3512 12.777 19.0805 12.3563 20.2025 12.3563C21.7734 12.3563 22.9795 13.5204 22.9795 15.3577V19.8177H21.0861V15.8205C21.0861 14.5582 20.455 14.0112 19.5153 14.0112C18.7159 14.0112 18.0006 14.5582 18.0006 15.8205V19.8177H16.1072Z" fill="white"/>
<path d="M11.0092 20C8.61087 20 7.04004 18.4292 7.04004 16.1851V10H9.00357V15.9748C9.00357 17.3633 9.66276 18.2048 11.0092 18.2048C12.3556 18.2048 13.0148 17.3633 13.0148 15.9748V10H14.9783V16.1851C14.9783 18.4292 13.4075 20 11.0092 20Z" fill="white"/>
</svg>
